<svg width="60" height="60" xmlns="http://www.w3.org/2000/svg">
 <title/>

 <g>
  <title>background</title>
  <rect fill="none" id="canvas_background" height="402" width="582" y="-1" x="-1"/>
 </g>
 <g>
  <title>Layer 1</title>
  <path id="Twitter" fill="#4086CD" d="m30,60c16.568539,0 30,-13.431461 30,-30c0,-16.56854 -13.431461,-30 -30,-30c-16.56854,0 -30,13.43146 -30,30c0,16.568539 13.43146,30 30,30z"/>
  <path id="svg_1" fill="#FFFFFF" d="m41.052139,18.436701c-1.20895,-1.3745 -2.931599,-2.25024 -4.838078,-2.281971c-3.660461,-0.06093 -6.628412,3.03219 -6.628412,6.90839c0,0.550119 0.058641,1.086571 0.171721,1.601551c-5.508789,-0.357321 -10.3929,-3.225901 -13.661949,-7.549952c-0.57056,1.03614 -0.897511,2.24716 -0.897511,3.54443c0,2.455841 1.170179,4.635382 2.948719,5.922272c-1.08651,-0.047972 -2.108559,-0.376881 -3.00219,-0.916471c-0.000649,0.029491 -0.000649,0.059 -0.000649,0.08901c0,3.42959 2.284801,6.306751 5.31704,6.976982c-0.556181,0.157597 -1.14175,0.240078 -1.746231,0.236069c-0.427109,-0.002831 -0.842419,-0.050201 -1.24708,-0.135239c0.84339,2.812607 3.291191,4.864998 6.191771,4.932858c-2.26848,1.883072 -5.126421,3.004562 -8.232,2.998161c-0.53501,-0.00111 -1.0626,-0.035679 -1.58114,-0.102192c2.933379,2.012711 6.417439,3.18457 10.160609,3.185551c12.191792,0.003201 18.858971,-10.60664 18.858971,-19.80938c0,-0.301929 -0.006618,-0.602249 -0.019218,-0.901119c1.295048,-0.964981 2.418709,-2.17486 3.307339,-3.556431c-1.18861,0.535801 -2.466209,0.891649 -3.80682,1.04092c1.368389,-0.842171 2.419518,-2.190041 2.91431,-3.806379c-1.28083,0.77673 -2.699303,1.33375 -4.209202,1.62294z"/>
 </g>
</svg>